<?xml version="1.0" standalone="no"?>
<!DOCTYPE svg PUBLIC "-//W3C//DTD SVG 20010904//EN"
 "http://www.w3.org/TR/2001/REC-SVG-20010904/DTD/svg10.dtd">
<svg version="1.0" xmlns="http://www.w3.org/2000/svg"
 width="624.000000pt" height="624.000000pt" viewBox="0 0 624.000000 624.000000"
 preserveAspectRatio="xMidYMid meet">
<metadata>
Created by potrace 1.14, written by Peter Selinger 2001-2017
</metadata>
<g transform="translate(0.000000,624.000000) scale(0.100000,-0.100000)"
fill="#000000" stroke="none">
<path d="M490 4007 c0 -5 -3 -6 -8 -3 -22 13 -120 -72 -127 -112 -2 -9 -4 -17
-5 -17 -1 0 -3 -16 -5 -35 -3 -39 21 -110 38 -110 8 0 8 -3 0 -11 -13 -13 -33
-4 -33 17 0 13 -12 18 -33 15 -4 -1 -24 -4 -45 -8 -20 -3 -47 -6 -59 -7 -13 0
-23 -4 -23 -9 0 -4 -4 -6 -8 -3 -5 3 -35 -2 -68 -10 -97 -25 -119 -65 -78
-144 46 -88 72 -149 67 -154 -4 -3 1 -6 10 -6 9 0 17 -5 17 -12 0 -12 77 -118
94 -130 6 -4 8 -8 4 -8 -4 0 29 -39 75 -86 91 -97 88 -93 139 -133 21 -15 34
-32 30 -36 -4 -5 -2 -5 4 -2 7 4 17 0 24 -8 7 -8 16 -12 21 -9 5 3 9 1 9 -4 0
-9 91 -58 103 -54 4 1 7 -3 7 -8 0 -5 3 -9 8 -9 4 1 9 0 12 -1 3 -1 12 -3 20
-5 8 -2 29 -8 47 -13 17 -6 34 -8 37 -4 3 3 6 1 6 -4 0 -11 42 -16 128 -18 28
-1 52 -5 52 -10 0 -5 6 -3 13 3 8 6 16 9 18 6 3 -2 6 6 6 18 1 12 7 23 12 25
5 2 8 9 5 16 -3 7 3 19 13 27 16 13 17 12 4 -3 -9 -13 -10 -18 -2 -18 8 0 9
-6 3 -17 -5 -10 -7 -24 -5 -30 3 -7 0 -13 -6 -13 -6 0 -8 -6 -5 -14 3 -8 0
-17 -5 -21 -6 -3 -9 -10 -6 -15 3 -5 -1 -25 -9 -44 -8 -19 -12 -37 -8 -40 3
-3 0 -6 -6 -6 -7 0 -12 -9 -12 -20 0 -11 -5 -20 -11 -20 -5 0 -7 -5 -4 -10 3
-6 -1 -13 -9 -16 -9 -3 -13 -10 -10 -15 3 -5 1 -9 -4 -9 -5 0 -12 -9 -15 -20
-9 -35 -34 -12 -43 38 -4 26 -8 52 -9 57 -1 6 -3 24 -3 40 -2 26 -6 31 -29 33
-58 5 -104 22 -96 35 3 6 1 7 -5 3 -6 -3 -61 25 -123 64 -62 38 -115 70 -118
70 -4 0 -7 -9 -7 -20 0 -11 3 -20 6 -20 3 0 6 -24 7 -54 2 -30 7 -66 13 -81 6
-15 9 -29 8 -30 -2 -2 -19 -5 -38 -6 -62 -6 -124 -49 -155 -109 -15 -29 -23
-96 -12 -106 4 -4 7 -13 7 -21 0 -30 47 -83 95 -107 64 -33 144 -31 201 5 44
26 70 49 57 49 -4 0 -1 6 7 13 8 7 16 17 17 24 12 59 12 79 2 119 -7 25 -18
48 -25 51 -8 3 -12 8 -9 13 2 4 -7 13 -20 20 -14 7 -25 17 -25 20 0 4 -20 13
-45 20 -25 7 -45 17 -45 21 0 13 14 11 64 -11 25 -10 46 -24 46 -30 0 -5 6
-10 13 -10 15 0 35 -23 59 -68 10 -19 13 -32 6 -32 -7 0 -7 -4 -1 -12 14 -19
7 -86 -13 -124 l-18 -32 40 -48 c90 -111 154 -164 196 -164 42 0 127 90 200
212 19 32 38 56 41 53 4 -3 5 -2 2 1 -2 4 8 30 22 58 15 28 26 54 25 59 -1 4
3 7 8 7 5 0 9 3 8 8 -1 4 4 20 10 35 7 16 12 33 12 38 0 5 4 9 10 9 5 0 9 3 8
8 -2 12 14 66 25 79 5 7 14 10 21 6 6 -3 8 -3 4 2 -9 9 16 35 33 35 7 0 10 3
6 6 -3 3 5 16 19 29 13 12 24 27 24 32 0 11 59 63 72 63 8 0 36 21 64 49 8 7
12 21 10 30 -3 9 -8 32 -10 51 -3 20 -6 40 -8 45 -1 6 5 31 15 58 30 76 101
125 191 132 47 4 48 4 41 14 -3 5 -1 12 5 16 5 3 10 15 10 26 0 10 4 19 8 19
8 0 38 89 34 103 -1 4 3 7 9 7 5 0 7 5 4 10 -3 6 -3 16 2 23 16 25 10 66 -13
88 -13 13 -24 19 -24 15 0 -5 -6 -4 -12 1 -13 9 -61 16 -125 17 -18 1 -33 3
-33 6 0 8 -124 5 -138 -4 -7 -4 -12 -2 -12 4 0 6 -5 8 -12 4 -6 -4 -33 -8 -60
-10 -26 -1 -69 -6 -95 -10 -27 -4 -60 -7 -75 -8 -16 0 -28 -4 -28 -8 0 -4 -10
-7 -22 -6 -13 0 -41 -4 -63 -10 -22 -6 -43 -12 -48 -12 -4 0 -22 -6 -41 -14
-19 -8 -37 -12 -40 -8 -3 3 -6 -1 -6 -8 0 -7 -3 -11 -6 -7 -4 3 -30 -6 -58
-20 -28 -15 -54 -26 -58 -25 -5 1 -8 -2 -8 -7 0 -5 -8 -12 -17 -15 -48 -16
-119 -106 -83 -106 6 0 10 -5 10 -12 0 -6 16 -27 36 -45 20 -18 34 -33 30 -33
-3 0 4 -11 15 -24 12 -13 20 -27 19 -31 -1 -4 9 -15 21 -26 12 -10 19 -19 14
-19 -4 0 -2 -6 4 -13 6 -8 8 -17 4 -20 -3 -4 -2 -7 4 -7 5 0 10 -6 10 -13 0
-8 -6 -14 -14 -14 -7 0 -13 3 -13 7 0 4 -18 13 -40 20 -22 7 -40 17 -40 22 0
4 -9 8 -19 8 -11 0 -23 5 -26 10 -4 6 -11 8 -16 5 -5 -4 -9 1 -9 10 0 9 -4 14
-9 11 -5 -3 -30 6 -57 19 -27 14 -55 25 -62 25 -8 0 -10 5 -6 12 5 8 2 9 -9 5
-11 -4 -17 -1 -17 9 0 8 -4 13 -8 10 -4 -2 -13 -1 -20 3 -9 5 3 23 38 59 27
28 50 56 50 62 0 5 5 10 10 10 6 0 10 7 10 15 0 8 4 15 8 15 4 0 14 16 21 35
6 19 15 34 19 33 4 -1 32 10 62 24 30 15 62 28 70 30 8 2 21 9 28 16 7 6 20
12 27 12 24 0 6 25 -28 39 -17 8 -34 15 -37 16 -3 1 -20 6 -37 10 -18 4 -33
11 -33 15 0 12 -40 6 -48 -8 -13 -20 -74 -62 -83 -56 -5 3 -9 1 -9 -4 0 -10
-6 -11 -82 -16 -32 -2 -58 -1 -58 3 0 3 -11 7 -24 7 -36 2 -112 64 -78 64 5 0
18 -9 30 -20 12 -11 28 -20 37 -20 8 0 15 -5 15 -11 0 -5 4 -7 10 -4 5 3 18 1
29 -4 14 -8 21 -8 24 2 4 8 6 8 6 1 1 -8 11 -9 34 -4 65 17 82 24 101 42 11
10 24 18 28 18 5 0 6 5 3 10 -3 6 -2 10 3 10 14 0 34 54 37 98 2 34 -24 100
-50 127 -20 21 -87 55 -96 50 -5 -4 -9 -3 -9 2 0 4 -22 8 -50 8 -27 0 -50 -4
-50 -8z m8 -541 c3 -3 -2 -6 -10 -6 -9 0 -18 -7 -22 -15 -3 -8 -12 -15 -20
-15 -18 0 -30 31 -16 40 13 8 59 5 68 -4z m954 -69 c3 -6 -4 -20 -14 -29 -10
-10 -18 -15 -18 -12 0 4 -9 -5 -21 -20 -11 -14 -25 -26 -30 -26 -9 0 -79 65
-79 73 0 3 32 8 68 10 12 0 22 3 22 7 0 11 68 9 72 -3z"/>
<path d="M2073 3888 c-7 -11 -10 -120 -4 -190 1 -15 11 -18 67 -18 l66 0 -4
-242 c-3 -208 -6 -249 -22 -285 -23 -55 -75 -100 -131 -114 -25 -6 -46 -14
-46 -18 -1 -3 -3 -48 -4 -98 -3 -110 3 -119 72 -109 143 19 260 135 310 307
20 71 29 759 10 771 -21 14 -303 9 -314 -4z"/>
<path d="M2482 3888 c-13 -13 -17 -163 -6 -192 5 -13 22 -16 76 -16 58 0 69
-3 64 -15 -3 -8 -37 -106 -75 -217 -38 -112 -99 -288 -135 -393 -36 -104 -66
-198 -66 -207 0 -16 11 -18 99 -18 l99 0 32 95 32 95 156 -2 156 -3 28 -93 29
-92 417 2 417 3 0 105 0 105 -232 3 -233 2 0 110 0 110 160 0 c88 0 161 3 161
8 7 36 3 190 -4 200 -7 9 -52 12 -163 12 l-154 0 0 95 0 95 226 -1 c130 -1
230 3 235 8 6 6 8 54 7 109 l-3 99 -322 3 c-299 2 -323 1 -331 -15 -5 -10 -10
-97 -10 -193 0 -96 -1 -181 -1 -187 -1 -8 -15 -13 -36 -13 -44 0 -48 -10 -47
-104 1 -126 -3 -116 42 -116 37 0 40 -2 41 -27 1 -33 1 -229 0 -258 -1 -11
-71 186 -156 438 -85 252 -157 462 -160 467 -9 15 -328 13 -343 -2z m311 -495
c19 -60 38 -118 41 -130 7 -23 6 -23 -79 -23 -66 0 -86 3 -82 13 2 6 22 65 43
130 21 64 39 117 41 117 1 0 17 -48 36 -107z"/>
<path d="M4096 3882 c-3 -10 -6 -81 -5 -157 0 -77 0 -161 0 -187 l-1 -48 -35
0 c-38 0 -54 -21 -49 -64 1 -11 3 -51 3 -88 l1 -68 40 0 c47 0 42 28 41 -240
0 -96 3 -181 8 -188 5 -9 33 -12 97 -10 l89 3 3 218 2 217 163 0 163 0 -1
-202 c0 -112 1 -211 3 -220 4 -16 17 -18 98 -18 90 0 94 1 95 23 1 12 1 73 1
135 0 118 6 128 27 52 29 -100 117 -194 206 -219 127 -35 249 13 325 127 57
87 64 128 66 427 1 164 -3 275 -9 283 -6 8 -37 12 -88 12 -56 0 -79 -4 -80
-12 -1 -7 -3 -126 -4 -264 -2 -211 -5 -256 -19 -286 -37 -78 -104 -106 -163
-69 -64 40 -67 57 -73 356 l-5 270 -80 3 c-63 2 -82 0 -91 -12 -8 -12 -11 11
-10 97 1 61 -2 120 -6 130 -7 14 -23 17 -92 17 -55 0 -87 -4 -93 -12 -5 -7 -8
-100 -8 -205 l1 -193 -163 0 -163 0 -2 203 -3 202 -92 3 c-81 2 -92 1 -97 -16z
m721 -274 c-3 -8 -6 -5 -6 6 -1 11 2 17 5 13 3 -3 4 -12 1 -19z m0 -50 c-3 -7
-5 -2 -5 12 0 14 2 19 5 13 2 -7 2 -19 0 -25z m0 -70 c-3 -8 -6 -5 -6 6 -1 11
2 17 5 13 3 -3 4 -12 1 -19z m0 -50 c-3 -7 -5 -2 -5 12 0 14 2 19 5 13 2 -7 2
-19 0 -25z m0 -80 c-3 -7 -5 -2 -5 12 0 14 2 19 5 13 2 -7 2 -19 0 -25z m0
-70 c-3 -8 -6 -5 -6 6 -1 11 2 17 5 13 3 -3 4 -12 1 -19z m0 -50 c-3 -7 -5 -2
-5 12 0 14 2 19 5 13 2 -7 2 -19 0 -25z m0 -70 c-3 -8 -6 -5 -6 6 -1 11 2 17
5 13 3 -3 4 -12 1 -19z m0 -50 c-3 -7 -5 -2 -5 12 0 14 2 19 5 13 2 -7 2 -19
0 -25z"/>
<path d="M5457 3894 c-4 -4 -7 -245 -7 -536 l0 -529 88 3 c81 3 87 5 90 25 l3
22 36 -25 c50 -34 108 -47 178 -41 183 14 315 198 316 437 0 147 -42 258 -133
350 -95 96 -241 118 -348 52 l-49 -31 -3 137 -3 137 -80 3 c-45 1 -84 0 -88
-4z m390 -415 c74 -28 123 -117 123 -223 0 -88 -15 -136 -57 -186 -89 -103
-225 -62 -268 82 -56 190 61 381 202 327z"/>
<path d="M1654 3300 c-51 -24 -94 -63 -99 -90 -2 -13 -12 -32 -22 -43 -10 -11
-13 -18 -7 -14 7 4 11 -6 12 -27 3 -68 39 -119 110 -154 93 -47 219 -5 266 87
9 16 12 31 9 35 -4 3 -2 6 4 6 15 0 6 74 -13 112 -21 41 -57 76 -91 89 -48 19
-127 19 -169 -1z"/>
<path d="M4107 2761 c-29 -15 -37 -16 -37 -5 0 25 -56 17 -79 -12 -23 -29 -26
-55 -11 -84 8 -15 6 -20 -12 -26 -110 -35 -158 -160 -96 -250 27 -40 100 -74
157 -74 44 0 121 26 121 41 0 5 14 2 31 -7 45 -23 108 -11 163 31 l44 33 13
-25 c33 -62 171 -70 240 -14 23 18 24 18 34 -3 6 -11 25 -25 42 -30 28 -9 31
-13 26 -36 -3 -19 2 -35 20 -56 23 -26 31 -29 86 -29 68 1 100 18 139 76 26
38 69 61 92 49 8 -4 49 -7 90 -6 l75 1 27 55 c26 54 27 54 27 22 1 -23 10 -41
29 -58 23 -23 33 -25 72 -20 25 4 51 6 58 6 13 -2 94 -2 115 -1 6 0 26 0 42
-2 27 -2 32 3 57 53 26 54 27 54 27 22 1 -47 42 -85 85 -80 29 3 32 1 28 -19
-17 -88 78 -131 178 -80 29 14 52 35 65 59 11 20 29 39 42 42 34 9 84 56 100
95 14 32 13 36 -3 48 -25 19 -39 16 -58 -9 -13 -19 -12 -14 3 27 23 62 14 88
-39 105 -55 18 -134 6 -179 -28 -20 -15 -37 -30 -39 -34 -7 -15 -24 -8 -19 6
3 8 -6 26 -20 40 -27 28 -78 35 -112 16 -30 -16 -81 9 -81 40 0 33 -10 47 -40
58 -46 17 -90 -20 -94 -78 -1 -20 -56 -89 -56 -71 0 8 -7 22 -15 31 -14 16
-14 21 4 51 32 55 34 87 6 115 -42 42 -110 24 -171 -44 -20 -23 -33 -31 -38
-24 -19 31 -117 -5 -131 -47 -5 -17 -15 -21 -53 -21 -26 0 -57 -7 -69 -15 -18
-13 -22 -13 -33 0 -7 8 -21 15 -31 15 -30 0 -88 -32 -94 -52 -5 -15 -11 -13
-41 17 -19 19 -47 41 -64 50 -25 13 -30 13 -43 0 -9 -8 -17 -19 -19 -25 -2 -7
-15 -5 -37 6 -37 18 -122 14 -147 -7 -11 -9 -18 -9 -26 -1 -15 15 -70 15 -103
0 -19 -9 -28 -9 -37 0 -7 7 -23 12 -36 12 -22 0 -22 1 -8 22 46 65 -21 148
-118 148 -7 0 -28 -9 -49 -19z m98 -101 c-3 -5 -15 -10 -26 -10 -11 0 -17 5
-14 10 3 6 15 10 26 10 11 0 17 -4 14 -10z m-88 -128 c12 -7 29 -12 39 -12 32
0 4 -14 -29 -14 -30 -1 -32 -3 -38 -45 -3 -26 -13 -49 -24 -57 -42 -31 -115
-6 -115 39 0 71 101 125 167 89z m1876 -57 c-3 -9 -8 -14 -10 -11 -3 3 -2 9 2
15 9 16 15 13 8 -4z m-1379 -29 c-7 -17 -58 -40 -76 -34 -10 4 35 30 79 47 1
1 0 -5 -3 -13z"/>
<path d="M2514 2760 c-55 -17 -94 -70 -106 -143 -2 -11 -17 -33 -33 -51 -37
-39 -55 -93 -50 -147 15 -144 157 -148 297 -9 58 58 58 58 64 32 15 -74 62
-121 120 -122 76 -1 158 19 201 50 43 29 46 30 59 13 7 -10 14 -20 14 -23 0
-11 66 -30 101 -30 32 0 57 10 105 40 18 11 24 9 48 -15 24 -23 33 -26 69 -21
23 3 47 6 52 6 6 -1 55 -2 110 -4 87 -4 104 -1 134 16 32 20 71 71 71 95 0 24
-30 44 -50 33 -18 -9 -18 -8 -8 20 5 17 23 37 39 46 28 14 39 47 20 59 -5 3
-7 21 -4 40 5 30 3 35 -20 40 -39 10 -97 -13 -116 -46 -13 -24 -22 -29 -57
-29 -22 0 -49 -6 -59 -14 -16 -12 -21 -11 -34 1 -19 20 -77 10 -106 -17 -20
-19 -24 -20 -32 -7 -13 24 -64 47 -106 47 -43 0 -123 -34 -131 -57 -5 -12 -10
-11 -25 8 -11 13 -15 26 -11 29 15 9 48 91 45 109 -2 9 -4 21 -4 27 -1 13 -45
34 -72 34 -28 0 -80 -28 -107 -59 -26 -28 -102 -177 -102 -198 0 -7 -4 -13
-10 -13 -17 0 48 171 71 186 5 3 9 16 9 30 0 32 -41 49 -90 37 -19 -5 -55 -5
-80 -1 -78 14 -184 18 -216 8z m136 -121 l-28 -31 -55 12 c-44 10 -53 15 -43
25 15 16 37 20 102 22 l52 2 -28 -30z m575 -146 c-3 -28 -14 -56 -26 -68 l-21
-20 6 44 c5 41 29 91 42 91 3 0 3 -21 -1 -47z m-705 -15 c8 3 -1 -13 -20 -35
-34 -39 -72 -59 -90 -48 -12 7 -1 67 17 87 13 14 19 15 46 3 18 -7 39 -10 47
-7z"/>
<path d="M1464 2746 c-39 -17 -64 -52 -64 -89 0 -35 22 -44 68 -27 46 16 106
25 100 13 -3 -4 -12 -25 -22 -45 l-16 -37 -36 21 c-101 59 -250 -18 -270 -139
-12 -77 30 -160 93 -184 40 -15 101 -10 145 12 48 25 65 40 105 97 30 41 31
41 37 17 10 -38 49 -59 94 -51 20 4 44 7 52 6 8 -1 38 -3 65 -5 28 -1 78 -6
112 -10 46 -6 71 -4 100 8 28 11 44 12 57 5 23 -13 80 -4 113 17 25 17 63 72
63 92 0 24 -30 44 -50 33 -18 -9 -18 -8 -8 21 6 17 21 35 34 41 26 12 39 41
27 60 -4 7 -8 26 -8 42 0 41 -24 53 -75 37 -28 -8 -47 -22 -58 -42 -10 -16
-23 -29 -29 -29 -7 0 -13 -5 -13 -10 0 -7 -6 -7 -19 0 -28 14 -81 12 -114 -5
-25 -13 -30 -13 -44 0 -18 19 -60 19 -96 0 -24 -12 -29 -12 -34 0 -6 18 -46
20 -75 4 l-21 -11 20 28 c11 16 23 37 26 47 4 11 16 21 27 24 27 7 29 62 3 64
-10 1 -25 2 -33 3 -8 0 -29 -4 -47 -11 -25 -10 -40 -10 -80 2 -59 18 -89 18
-129 1z m36 -246 c0 -6 -11 -33 -25 -60 -48 -95 -111 -135 -147 -92 -16 19
-16 25 -4 62 12 36 36 60 77 79 43 20 99 26 99 11z m563 -6 c-6 -18 -19 -18
-26 -1 -3 7 3 13 14 14 12 1 16 -3 12 -13z"/>
</g>
</svg>
